<?xml version="1.0" encoding="utf-8"?>
<!-- Generator: Adobe Illustrator 22.1.0, SVG Export Plug-In . SVG Version: 6.00 Build 0)  -->
<svg version="1.1" id="Layer_1" xmlns="http://www.w3.org/2000/svg" xmlns:xlink="http://www.w3.org/1999/xlink" x="0px" y="0px"
	 viewBox="0 0 89.3 89.3" style="enable-background:new 0 0 89.3 89.3;" xml:space="preserve">
<style type="text/css">
	.st0{fill:#2962FF;}
	.st1{fill:#90CAF9;}
</style>
<g>
	<path class="st0" d="M71,44.3h-5.7c-0.4-1.4-0.9-2.8-1.5-4.1c-0.4,0-0.8,0.1-1.2,0.1c-7.5,0-13.6-6.1-13.6-13.6
		c0-0.4,0-0.7,0.1-1.1c-1.4-0.6-2.7-1.1-4-1.6v-5.7c0-1.7-1.3-3-3-3H32c-1.7,0-3,1.3-3,3v5.4c-2,0.6-4.6,1.5-6.7,2.6l-3.7-3.7
		c-1.2-1.2-3.1-1.2-4.2,0l-7.1,7.1c-1.2,1.2-1.2,3.1,0,4.2l3.4,3.4c-1.3,2.2-2.3,4.5-3,6.9H3c-1.7,0-3,1.3-3,3v10c0,1.7,1.3,3,3,3
		h4.4c0.7,2.6,1.7,5,3,7.3l-3.1,3.1c-1.2,1.2-1.2,3.1,0,4.2l7.1,7.1c1.2,1.2,3.1,1.2,4.2,0l3.1-3.1c2.3,1.3,4.3,2.3,7.3,2.9v4.6
		c0,1.7,1.3,3,3,3h10c1.7,0,3-1.3,3-3v-4.8c2-0.7,4.8-1.7,6.9-3l3.5,3.5c1.2,1.2,3.1,1.2,4.2,0l7.1-7.1c1.2-1.2,1.2-3.1,0-4.2
		l-3.8-3.8c1.1-2.1,2-4.3,2.6-6.6H71c1.7,0,3-1.3,3-3v-10C74,45.6,72.7,44.3,71,44.3z M36.5,71.8c-10.5,0-19-8.5-19-19s8.5-19,19-19
		s19,8.5,19,19S47,71.8,36.5,71.8z"/>
	<g>
		<path class="st1" d="M88.1,29.2l-3.9-1.4c0.1-1.6,0-3.2-0.3-4.8l3.8-1.7c1.1-0.5,1.5-1.7,1-2.8l-3-6.5c-0.5-1.1-1.8-1.5-2.8-1
			L79,12.7c-1-1.2-2.2-2.4-3.6-3.4l1.4-3.9c0.4-1.1-0.2-2.4-1.3-2.8l-6.8-2.5c-1.1-0.4-2.6,0.1-3,1.2L64.3,5c-1.7-0.1-3.4-0.1-5,0.1
			l-1.6-3.5c-0.5-1.1-1.7-1.5-2.8-1l-6.5,3c-1.1,0.5-1.5,1.7-1,2.8l1.5,3.2c-1.4,1.1-2.6,2.4-3.7,3.8L42,12.2
			c-1.1-0.4-2.4,0.4-2.8,1.5l-2.5,6.8c-0.4,1.1,0.2,2.4,1.3,2.8l3,1.1c-0.2,1.9-0.1,3.8,0.2,5.6l-2.9,1.3c-1.1,0.5-1.5,1.8-1,2.9
			l3,6.5c0.5,1.1,1.7,1.5,2.8,1l2.9-1.4c1.2,1.4,2.5,2.6,4.1,3.7l-1,3.3c-0.4,1.1,0.4,2.3,1.6,2.7l6.8,2.5c1.1,0.4,2.3,0,2.7-1.1
			l1.2-3.2c1.8,0.1,3.6,0,5.4-0.4l1.5,3.2c0.5,1.1,1.8,1.5,2.9,1l6.5-3c1.1-0.5,1.5-1.8,1-2.8l-1.6-3.5c1.3-1.1,2.4-2.4,3.4-3.8
			l3.7,1.4c1.1,0.4,2.2-0.3,2.6-1.4l2.5-6.8C89.5,31,89.2,29.6,88.1,29.2z M75.4,31.3C72.8,38.4,65,42,57.9,39.4S47.2,29,49.8,21.9
			c2.6-7.1,10.4-10.7,17.5-8.1S78,24.2,75.4,31.3z"/>
		<path class="st1" d="M64.8,20.5c-3.4-1.2-7.1,0.5-8.3,3.9c-1.2,3.4,0.5,7.1,3.9,8.3c3.4,1.2,7.1-0.5,8.3-3.9
			C69.9,25.5,68.2,21.8,64.8,20.5z"/>
	</g>
	<circle class="st0" cx="36.5" cy="52.8" r="9"/>
</g>
</svg>
