<?xml version="1.0" encoding="utf-8"?>
<!-- Generator: Adobe Illustrator 22.0.1, SVG Export Plug-In . SVG Version: 6.00 Build 0)  -->
<svg version="1.1" id="Layer_1" xmlns="http://www.w3.org/2000/svg" xmlns:xlink="http://www.w3.org/1999/xlink" x="0px" y="0px"
	 viewBox="0 0 293.8 242.2" style="enable-background:new 0 0 293.8 242.2;" xml:space="preserve">
<style type="text/css">
	.st0{fill-rule:evenodd;clip-rule:evenodd;fill:#E3E8ED;}
	.st1{fill-rule:evenodd;clip-rule:evenodd;fill:#2962FF;}
	.st2{fill-rule:evenodd;clip-rule:evenodd;fill:#63737A;}
	.st3{fill-rule:evenodd;clip-rule:evenodd;fill:#ABACB2;}
</style>
<g>
	<path class="st0" d="M250.8,231.4c4.5,0,8.2-3.7,8.2-8.2c0-4.5-3.7-8.2-8.2-8.2H125.1l-7-24c-17.2-59.3-34.5-118.7-51.7-178l0,0
		c-1.1-3.8-4.8-6.2-8.6-5.9L23.4,7c-4.5,0-8.2,3.7-8.2,8.2c0,4.5,3.7,8.2,8.2,8.2h29.1L99.9,187l0,0.1l11,37.7
		c0.7,3.8,4.1,6.6,8,6.6L250.8,231.4L250.8,231.4z"/>
	<path class="st1" d="M4.5,4.5C7.2,1.7,11,0,15.2,0c4.2,0,8,1.7,10.7,4.5c2.8,2.8,4.5,6.6,4.5,10.8c0,4.2-1.7,8-4.5,10.7
		c-2.8,2.8-6.6,4.5-10.7,4.5c-4.2,0-8-1.7-10.7-4.5S0,19.4,0,15.2C0,11,1.7,7.2,4.5,4.5L4.5,4.5L4.5,4.5z"/>
	<path class="st2" d="M237.4,209.7c3.4-3.4,8.2-5.6,13.4-5.6c4.9,0,9.5,1.9,12.8,5c0.2,0.2,0.4,0.4,0.6,0.6l0,0
		c3.4,3.4,5.6,8.2,5.6,13.4c0,4.9-1.9,9.5-5,12.8c-0.2,0.2-0.4,0.4-0.6,0.6l0,0c-3.4,3.4-8.2,5.6-13.4,5.6c-4.9,0-9.5-1.9-12.8-5
		c-0.2-0.2-0.4-0.4-0.6-0.6l0,0c-3.4-3.4-5.6-8.2-5.6-13.4c0-4.9,1.9-9.5,5-12.8C237,210.1,237.2,209.9,237.4,209.7L237.4,209.7
		L237.4,209.7z"/>
	<path class="st2" d="M105.5,209.7c3.4-3.4,8.2-5.6,13.4-5.6c4.9,0,9.5,1.9,12.8,5c0.2,0.2,0.4,0.4,0.6,0.6l0,0
		c3.4,3.4,5.6,8.2,5.6,13.4c0,4.9-1.9,9.5-5,12.8c-0.2,0.2-0.4,0.4-0.6,0.6l0,0c-3.4,3.4-8.2,5.6-13.4,5.6c-4.9,0-9.5-1.9-12.8-5
		c-0.2-0.2-0.4-0.4-0.6-0.6l0,0c-3.4-3.4-5.6-8.2-5.6-13.4c0-4.9,1.9-9.5,5-12.8C105.1,210.1,105.3,209.9,105.5,209.7L105.5,209.7
		L105.5,209.7z"/>
	<path class="st3" d="M112.7,217c1.6-1.6,3.8-2.6,6.2-2.6c2.3,0,4.4,0.9,5.9,2.3c0.1,0.1,0.2,0.2,0.3,0.3l0,0
		c1.6,1.6,2.6,3.8,2.6,6.2c0,2.3-0.9,4.4-2.3,5.9c-0.1,0.1-0.2,0.2-0.3,0.3l0,0c-1.6,1.6-3.8,2.6-6.2,2.6c-2.3,0-4.4-0.9-5.9-2.3
		c-0.1-0.1-0.2-0.2-0.3-0.3l0,0c-1.6-1.6-2.6-3.8-2.6-6.2c0-2.3,0.9-4.4,2.3-5.9C112.6,217.2,112.6,217.1,112.7,217L112.7,217
		L112.7,217z"/>
	<path class="st3" d="M244.6,217c1.6-1.6,3.8-2.6,6.2-2.6c2.3,0,4.4,0.9,5.9,2.3c0.1,0.1,0.2,0.2,0.3,0.3v0c1.6,1.6,2.6,3.8,2.6,6.2
		c0,2.3-0.9,4.4-2.3,5.9c-0.1,0.1-0.2,0.2-0.3,0.3l0,0c-1.6,1.6-3.8,2.6-6.2,2.6c-2.3,0-4.4-0.9-5.9-2.3c-0.1-0.1-0.2-0.2-0.3-0.3v0
		c-1.6-1.6-2.6-3.8-2.6-6.2c0-2.3,0.9-4.4,2.3-5.9C244.4,217.2,244.5,217.1,244.6,217L244.6,217L244.6,217z"/>
	<path class="st1" d="M73.7,58.8h6h205.9c4.5,0,8.2,3.7,8.2,8.2c0,1.2-0.2,2.2-0.7,3.2L257.4,176l0,0c-1.2,3.5-4.5,5.7-8,5.6
		l-134.1,0h-10.9h-6.1l-1.5-5.1c-0.2-0.5-0.3-0.9-0.4-1.4L65.8,69.3l0,0c-0.1-0.2-0.1-0.5-0.2-0.7l-2.8-9.7h10.7H73.7L73.7,58.8z
		 M199.6,83.9c-0.9-3.2-4.3-5.1-7.6-4.2c-3.2,0.9-5.1,4.3-4.2,7.6l20.1,69.4c0.9,3.2,4.3,5.1,7.6,4.2c3.2-0.9,5.1-4.3,4.2-7.6
		L199.6,83.9L199.6,83.9z M230.2,83.9c-0.9-3.2-4.3-5.1-7.6-4.2c-3.2,0.9-5.1,4.3-4.2,7.6l16.9,58.2c0.9,3.2,4.3,5.1,7.6,4.2
		c3.2-0.9,5.1-4.3,4.2-7.6L230.2,83.9L230.2,83.9z M260.7,83.9c-0.9-3.2-4.3-5.1-7.6-4.2c-3.2,0.9-5.1,4.3-4.2,7.6l2.8,9.6
		c0.9,3.2,4.3,5.1,7.6,4.2c3.2-0.9,5.1-4.3,4.2-7.6L260.7,83.9L260.7,83.9z M108,83.9c-0.9-3.2-4.3-5.1-7.6-4.2
		c-3.2,0.9-5.1,4.3-4.2,7.6l20.1,69.4c0.9,3.2,4.3,5.1,7.6,4.2c3.2-0.9,5.1-4.3,4.2-7.6L108,83.9L108,83.9z M138.6,83.9
		c-0.9-3.2-4.3-5.1-7.6-4.2c-3.2,0.9-5.1,4.3-4.2,7.6l20.1,69.4c0.9,3.2,4.3,5.1,7.6,4.2c3.2-0.9,5.1-4.3,4.2-7.6L138.6,83.9
		L138.6,83.9z M169.1,83.9c-0.9-3.2-4.3-5.1-7.6-4.2c-3.2,0.9-5.1,4.3-4.2,7.6l20.1,69.4c0.9,3.2,4.3,5.1,7.6,4.2
		c3.2-0.9,5.1-4.3,4.2-7.6L169.1,83.9L169.1,83.9z"/>
</g>
</svg>
