<?xml version="1.0" encoding="utf-8"?>
<!-- Generator: Adobe Illustrator 22.1.0, SVG Export Plug-In . SVG Version: 6.00 Build 0)  -->
<svg version="1.1" id="Layer_1" xmlns="http://www.w3.org/2000/svg" xmlns:xlink="http://www.w3.org/1999/xlink" x="0px" y="0px"
	 viewBox="0 0 22 16" style="enable-background:new 0 0 22 16;" xml:space="preserve">
<style type="text/css">
	.st0{fill:#0067F9;}
</style>
<path class="st0" d="M19,4h-3V0H2C0.9,0,0,0.9,0,2v11h2c0,1.7,1.3,3,3,3s3-1.3,3-3h6c0,1.7,1.3,3,3,3s3-1.3,3-3h2V8L19,4z M5,14.5
	c-0.8,0-1.5-0.7-1.5-1.5s0.7-1.5,1.5-1.5s1.5,0.7,1.5,1.5S5.8,14.5,5,14.5z M18.5,5.5l2,2.5H16V5.5H18.5z M17,14.5
	c-0.8,0-1.5-0.7-1.5-1.5s0.7-1.5,1.5-1.5s1.5,0.7,1.5,1.5S17.8,14.5,17,14.5z"/>
</svg>
