<?xml version="1.0" encoding="utf-8"?>
<!-- Generator: Adobe Illustrator 22.1.0, SVG Export Plug-In . SVG Version: 6.00 Build 0)  -->
<svg version="1.1" id="Layer_1" xmlns="http://www.w3.org/2000/svg" xmlns:xlink="http://www.w3.org/1999/xlink" x="0px" y="0px"
	 viewBox="0 0 25.4 31.6" style="enable-background:new 0 0 25.4 31.6;" xml:space="preserve">
<style type="text/css">
	.st0{fill:#2962FF;}
</style>
<path class="st0" d="M15.8,0H3.2C1.4,0,0,1.4,0,3v25.4c0,1.8,1.4,3.2,3.2,3.2h19c1.8,0,3.2-1.4,3.2-3.2v-19L15.8,0z M5.1,13.2h3.3
	v3.3H5.1V13.2z M17.4,27.9c0-0.5-0.4-4.6-4.6-4.6c-4.2,0-4.5,4.1-4.5,4.6l-3.1-0.1c0.1-2.6,1.8-7.6,7.6-7.6c5.8,0,7.6,5,7.7,7.6
	L17.4,27.9z M17.1,16.5v-3.3h3.3v3.3H17.1z M14.4,11V2.3l8.7,8.7H14.4z"/>
</svg>
