<?xml version="1.0" encoding="utf-8"?>
<!-- Generator: Adobe Illustrator 22.0.1, SVG Export Plug-In . SVG Version: 6.00 Build 0)  -->
<svg version="1.1" id="Layer_1" xmlns="http://www.w3.org/2000/svg" xmlns:xlink="http://www.w3.org/1999/xlink" x="0px" y="0px"
	 viewBox="0 0 36 36" style="enable-background:new 0 0 36 36;" xml:space="preserve">
<style type="text/css">
	.st0{fill:#304FFE;}
	.st1{fill:#FFFFFF;}
</style>
<g>
	<path class="st0" d="M5.9,26.2H0.5c-0.3,0-0.5,0.2-0.5,0.5v8.8C0,35.8,0.2,36,0.5,36h5.4c0.3,0,0.5-0.2,0.5-0.5v-8.8
		C6.4,26.4,6.2,26.2,5.9,26.2z"/>
	<circle class="st1" cx="3.2" cy="19.4" r="1.6"/>
	<path class="st0" d="M3.2,22.4c1.6,0,3-1.3,3-3c0-0.5-0.1-1-0.3-1.4l5-5.7c0.3,0.1,0.7,0.2,1,0.2c0.7,0,1.3-0.2,1.7-0.6l4.1,2.6
		c0,0.2-0.1,0.4-0.1,0.6c0,1.6,1.3,3,3,3c1.6,0,3-1.3,3-3c0-0.6-0.2-1.2-0.5-1.6l5.5-7.7c0.2,0.1,0.5,0.1,0.8,0.1c1.6,0,3-1.3,3-3
		s-1.3-3-3-3c-1.6,0-3,1.3-3,3c0,0.6,0.2,1.2,0.5,1.6l-5.5,7.7c-0.2-0.1-0.5-0.1-0.8-0.1c-0.7,0-1.3,0.2-1.7,0.6l-4.1-2.6
		c0-0.2,0.1-0.4,0.1-0.6c0-1.6-1.3-3-3-3c-1.6,0-3,1.3-3,3c0,0.5,0.1,1,0.3,1.4l-5,5.7c-0.3-0.1-0.7-0.2-1-0.2c-1.6,0-3,1.3-3,3
		C0.3,21,1.6,22.4,3.2,22.4z M3.2,17.8c0.9,0,1.6,0.7,1.6,1.6c0,0.9-0.7,1.6-1.6,1.6s-1.6-0.7-1.6-1.6C1.7,18.5,2.4,17.8,3.2,17.8z
		 M10.3,9.5c0-0.9,0.7-1.6,1.6-1.6c0.9,0,1.6,0.7,1.6,1.6c0,0.9-0.7,1.6-1.6,1.6C11.1,11.1,10.3,10.4,10.3,9.5z M20.6,13.6
		c0.9,0,1.6,0.7,1.6,1.6c0,0.9-0.7,1.6-1.6,1.6c-0.9,0-1.6-0.7-1.6-1.6C19,14.3,19.7,13.6,20.6,13.6z M27.7,3c0-0.9,0.7-1.6,1.6-1.6
		c0.9,0,1.6,0.7,1.6,1.6s-0.7,1.6-1.6,1.6C28.4,4.5,27.7,3.8,27.7,3z"/>
	<path class="st0" d="M14.6,17.6H9.2c-0.3,0-0.5,0.2-0.5,0.5v17.3c0,0.3,0.2,0.5,0.5,0.5h5.4c0.3,0,0.5-0.2,0.5-0.5V18.1
		C15.1,17.8,14.9,17.6,14.6,17.6z"/>
	<circle class="st1" cx="11.9" cy="9.5" r="1.6"/>
	<path class="st0" d="M23.3,23.3h-5.4c-0.3,0-0.5,0.2-0.5,0.5v11.6c0,0.3,0.2,0.5,0.5,0.5h5.4c0.3,0,0.5-0.2,0.5-0.5V23.9
		C23.8,23.6,23.6,23.3,23.3,23.3z"/>
	<ellipse transform="matrix(0.9782 -0.2077 0.2077 0.9782 -2.7032 4.6124)" class="st1" cx="20.6" cy="15.2" rx="1.6" ry="1.6"/>
	<path class="st0" d="M32,11.5h-5.4c-0.3,0-0.5,0.2-0.5,0.5v23.5c0,0.3,0.2,0.5,0.5,0.5H32c0.3,0,0.5-0.2,0.5-0.5V12
		C32.5,11.7,32.3,11.5,32,11.5z"/>
	<circle class="st1" cx="29.3" cy="3" r="1.6"/>
</g>
</svg>
