<?xml version="1.0" encoding="utf-8"?>
<!-- Generator: Adobe Illustrator 21.1.0, SVG Export Plug-In . SVG Version: 6.00 Build 0)  -->
<svg version="1.1" xmlns="http://www.w3.org/2000/svg" xmlns:xlink="http://www.w3.org/1999/xlink" x="0px" y="0px"
	 viewBox="0 0 222 152" style="enable-background:new 0 0 222 152;" xml:space="preserve">
<style type="text/css">
	.st0{fill:#2962FF;}
</style>
<g id="_x36_2">
	<g>
		<path class="st0" d="M194.1,69.8l-75.6,44.3c-6-2.3-12.9-1.7-18.5,2.4c-8.7,6.3-10.6,18.5-4.3,27.1c6.3,8.7,18.5,10.6,27.2,4.3
			c5.6-4,8.3-10.5,7.9-16.8l65.4-58.3L194.1,69.8z"/>
		<path class="st0" d="M111,0.3C49.9,0.3,0.4,49.8,0.4,110.9c0,6.8,0.7,13.5,1.9,19.9h12.1c-1.3-6.4-2-13.1-2-19.9
			c0-5.2,0.5-10.4,1.3-15.4l19.9,4.3l3-13.7l-19.9-4.3c2.8-9,6.8-17.4,11.8-25l14.5,10.8l8.3-11.2L37.1,45.7
			c6.5-7.4,14.1-13.7,22.5-18.9l8.3,15.6l12.3-6.6L72,20.4c10.1-4.4,21.2-7,32.7-7.7v16.9h13.9V12.7c11.5,0.9,22.5,3.7,32.6,8.3
			l-7.9,14.9l12.3,6.6l7.9-14.9c8.2,5.2,15.6,11.5,22,18.9l-13.4,9.9l8.3,11.2l13.5-10c4.9,7.6,8.8,15.8,11.5,24.6l-18.4,4l3,13.6
			l18.5-4c0.7,4.9,1.3,9.9,1.3,15.1c0,6.8-0.7,13.5-2,19.9h12.1c1.2-6.5,1.9-13.1,1.9-19.9C221.6,49.8,172,0.3,111,0.3z"/>
	</g>
</g>
<g id="Layer_1">
</g>
</svg>
