<?xml version="1.0" encoding="utf-8"?>
<!-- Generator: Adobe Illustrator 22.0.1, SVG Export Plug-In . SVG Version: 6.00 Build 0)  -->
<svg version="1.1" id="Layer_1" xmlns="http://www.w3.org/2000/svg" xmlns:xlink="http://www.w3.org/1999/xlink" x="0px" y="0px"
	 viewBox="0 0 21 18.2" style="enable-background:new 0 0 21 18.2;" xml:space="preserve">
<style type="text/css">
	.st0{fill:#2962FF;}
</style>
<path class="st0" d="M12,0.1c-5,0-9,4-9,9H0l3.9,3.9L4,13.1l4-4H5c0-3.9,3.1-7,7-7s7,3.1,7,7s-3.1,7-7,7c-1.9,0-3.7-0.8-4.9-2.1
	l-1.4,1.4c1.6,1.6,3.9,2.6,6.4,2.6c5,0,9-4,9-9S17,0.1,12,0.1z M11,5.1v5l4.3,2.5l0.7-1.2l-3.5-2.1V5.1H11z"/>
</svg>
