<?xml version="1.0" encoding="utf-8"?>
<!-- Generator: Adobe Illustrator 22.0.1, SVG Export Plug-In . SVG Version: 6.00 Build 0)  -->
<svg version="1.1" id="Layer_1" xmlns="http://www.w3.org/2000/svg" xmlns:xlink="http://www.w3.org/1999/xlink" x="0px" y="0px"
	 viewBox="0 0 150 121.4" style="enable-background:new 0 0 150 121.4;" xml:space="preserve">
<style type="text/css">
	.st0{fill:#2962FF;}
</style>
<g>
	<g>
		<path class="st0" d="M92.9,114.5H6.6V22h118.2v41.3c2.2,0.4,4.4,1,6.5,1.8V3.7c0-1.8-1.5-3.3-3.3-3.3H3.3C1.5,0.4,0,1.9,0,3.7v114
			c0,1.8,1.5,3.3,3.3,3.3h96.2c-1.2-0.9-2.3-1.8-3.4-2.9C94.9,116.9,93.9,115.8,92.9,114.5z M32.2,7.7c2,0,3.4,1.6,3.4,3.4
			s-1.6,3.4-3.4,3.4c-2,0-3.4-1.6-3.4-3.4S30.4,7.7,32.2,7.7z M21.1,7.7c2,0,3.4,1.6,3.4,3.4s-1.6,3.4-3.4,3.4c-2,0-3.4-1.6-3.4-3.4
			S19.3,7.7,21.1,7.7z M10,7.7c2,0,3.4,1.6,3.4,3.4s-1.6,3.4-3.4,3.4c-2,0-3.4-1.6-3.4-3.4S8.2,7.7,10,7.7z M78.4,103.6h9.3
			c-0.4-1.3-0.6-2.7-0.7-4h-8.4c-1.1,0-2,0.9-2,2C76.4,102.6,77.3,103.6,78.4,103.6z M90.3,68.9c0-1.1-0.9-2-2-2H64.2
			c-1.1,0-2,0.9-2,2s0.9,2,2,2h24.2C89.5,70.9,90.3,70,90.3,68.9z M106.5,47.5c0-1.1-0.9-2-2-2H23.1c-1.1,0-2,0.9-2,2s0.9,2,2,2
			h81.2C105.6,49.5,106.5,48.6,106.5,47.5z M80.3,85.2c0-1.1-0.9-2-2-2h-7.4c-1.1,0-2,0.9-2,2s0.9,2,2,2h7.4
			C79.4,87.1,80.3,86.2,80.3,85.2z M107.4,38.4c0-1.1-0.9-2-2-2H23.1c-1.1,0-2,0.9-2,2s0.9,2,2,2h82.3
			C106.6,40.3,107.4,39.5,107.4,38.4z M21.1,68.9c0,1.1,0.9,2,2,2H52c1.1,0,2-0.9,2-2s-0.9-2-2-2H23.1C22,67,21.1,67.8,21.1,68.9z
			 M62.1,85.2c0-1.1-0.9-2-2-2h-37c-1.1,0-2,0.9-2,2s0.9,2,2,2h37C61.3,87.1,62.1,86.2,62.1,85.2z M23.1,99.6c-1.1,0-2,0.9-2,2
			s0.9,2,2,2H51c1.1,0,2-0.9,2-2s-0.9-2-2-2H23.1z M62.1,103.6h7.4c1.1,0,2-0.9,2-2s-0.9-2-2-2h-7.4c-1.1,0-2,0.9-2,2
			C60.2,102.6,61,103.6,62.1,103.6z M139.7,97c-0.5,4.9-2.6,9.3-6,12.8c-3.9,3.9-9.2,6.1-14.8,6.1c-5.5,0-10.7-2.2-14.7-6.1
			c-3.9-3.9-6.1-9.2-6.1-14.7c0-5.6,2.2-10.7,6.1-14.8c3.9-3.9,9.2-6.1,14.8-6.1c4.4,0,8.7,1.5,12.2,4l3.7-3.7
			c-4.5-3.5-10-5.4-15.9-5.4c-7,0-13.4,2.7-18.3,7.6c-4.9,4.9-7.6,11.4-7.6,18.3s2.7,13.4,7.6,18.3s11.4,7.6,18.3,7.6
			c7,0,13.4-2.7,18.3-7.6c4.9-4.9,7.6-11.4,7.6-18.3c0-1-0.1-2.1-0.2-3.1L139.7,97z M148.3,74.8c-1.2-1.2-3.2-1.2-4.4,0L118.7,100
			l-9-9c-1.2-1.2-3.2-1.2-4.4,0c-1.2,1.2-1.2,3.2,0,4.4l13.4,13.4l29.5-29.5C149.6,77.9,149.6,76,148.3,74.8z"/>
	</g>
</g>
</svg>
